<svg id="visual" viewBox="0 0 900 600" width="900" height="600" xmlns="http://www.w3.org/2000/svg" xmlns:xlink="http://www.w3.org/1999/xlink" version="1.1"><path d="M0 313L8.8 307.5C17.7 302 35.3 291 53 283.8C70.7 276.7 88.3 273.3 106 272.7C123.7 272 141.3 274 159 277.7C176.7 281.3 194.3 286.7 212 292.5C229.7 298.3 247.3 304.7 265 303C282.7 301.3 300.3 291.7 318 286.8C335.7 282 353.3 282 371 279.8C388.7 277.7 406.3 273.3 423.8 276C441.3 278.7 458.7 288.3 476.2 298.2C493.7 308 511.3 318 529 320.2C546.7 322.3 564.3 316.7 582 311.5C599.7 306.3 617.3 301.7 635 301.8C652.7 302 670.3 307 688 308C705.7 309 723.3 306 741 306.7C758.7 307.3 776.3 311.7 794 311.3C811.7 311 829.3 306 847 301.8C864.7 297.7 882.3 294.3 891.2 292.7L900 291L900 601L891.2 601C882.3 601 864.7 601 847 601C829.3 601 811.7 601 794 601C776.3 601 758.7 601 741 601C723.3 601 705.7 601 688 601C670.3 601 652.7 601 635 601C617.3 601 599.7 601 582 601C564.3 601 546.7 601 529 601C511.3 601 493.7 601 476.2 601C458.7 601 441.3 601 423.8 601C406.3 601 388.7 601 371 601C353.3 601 335.7 601 318 601C300.3 601 282.7 601 265 601C247.3 601 229.7 601 212 601C194.3 601 176.7 601 159 601C141.3 601 123.7 601 106 601C88.3 601 70.7 601 53 601C35.3 601 17.7 601 8.8 601L0 601Z" fill="#FFF0BB" stroke-linecap="round" stroke-linejoin="miter"></path></svg>