<svg xmlns="http://www.w3.org/2000/svg" viewBox="0 0 403.16 122.63" focusable="false" class="chakra-icon css-183c3ci" alt="gzb.ae Logo"><path fill="white" d="M211.8 25.85c-12.31 0-23.02 7.29-28.67 18.06V0h-16.29v95.27h16.29V78.69c5.65 10.77 16.36 18.06 28.67 18.06 18.18 0 32.92-15.87 32.92-35.45s-14.74-35.45-32.92-35.45m-6.16 57.82c-12.43 0-22.51-10.01-22.51-22.37s10.08-22.37 22.51-22.37 22.51 10.01 22.51 22.37-10.08 22.37-22.51 22.37M33.95 25.85C15.2 25.85 0 39.04 0 55.31c0 11.94 8.21 22.2 19.98 26.83l-.13-.02c-1.2.08-3.97.21-5.12.38-3.73.55-6.78 1.78-9.05 3.63-2.34 1.91-3.52 4.79-3.52 8.55 0 1.89.38 3.63 1.14 5.18.76 1.56 1.95 2.95 3.55 4.13 1.59 1.16 3.72 2.06 6.35 2.66 2.6.59 5.75.89 9.36.89h18.19c4.53 0 8.09.87 10.58 2.59 2.42 1.67 3.65 4.63 3.65 8.81v3.7h16.29v-6.67c0-5.5-1.19-9.9-3.55-13.09s-5.71-5.48-9.94-6.82c-4.16-1.31-9.08-1.98-14.6-1.98H24.04c-1.83 0-3.25-.37-4.22-1.09-.93-.7-1.38-1.6-1.38-2.75 0-1.96 1.21-3.25 3.68-3.94 2.68-.74 6.61-1.34 11.83-1.52 18.75 0 33.95-13.19 33.95-29.46 0-6.14-2.17-11.84-5.88-16.56.25.08.48.16.73.23 4.4 1.32 8.83 1.93 13.19 1.84h.58V27.1H43.66c-3.08-.8-6.34-1.24-9.72-1.24Zm0 45.83c-9.98 0-18.07-7.33-18.07-16.38s8.09-16.38 18.07-16.38 18.07 7.33 18.07 16.38-8.09 16.38-18.07 16.38m119.13-31.26V27.09H90.02v13.33h42.29L90.02 81.94v13.33h63.87V81.94h-43.1zm249.91 31.16c.11-.97.17-1.96.17-2.97 0-15.32-13.24-27.75-29.57-27.75s-29.57 12.42-29.57 27.75 13.24 27.75 29.57 27.75c13.26 0 24.48-8.19 28.23-19.48H389.7c-3.12 5.35-9.15 8.99-16.12 8.99-9.08 0-16.61-6.18-18.11-14.3h47.5Zm-29.4-20.23c7.92 0 14.64 4.7 17.24 11.28h-34.48c2.6-6.58 9.32-11.28 17.24-11.28M260.91 76.14c-5.28 0-9.56 4.28-9.56 9.56s4.28 9.56 9.56 9.56 9.56-4.28 9.56-9.56-4.28-9.56-9.56-9.56m64.46-22.88c-4.69-7.47-12.71-12.4-21.82-12.4-14.47 0-26.19 12.42-26.19 27.75s11.73 27.75 26.19 27.75c9.11 0 17.12-4.93 21.82-12.4v11.31h12.94v-53.4h-12.94zm-17.43 32.61c-9.63 0-17.43-7.73-17.43-17.26s7.8-17.26 17.43-17.26 17.43 7.73 17.43 17.26-7.8 17.26-17.43 17.26" class="logo_ae_svg__cls-1"></path></svg>